<svg xmlns="http://www.w3.org/2000/svg" 
  viewBox="10 10 22 22" fill="none">
  <path d="
    M 27.4576 14.5305
    L 24.1232 17.8237
    C 23.9355 18.0128 23.8285 18.2674 23.8247 18.5338
    V 26.952
    C 23.818 27.2837 23.6518 27.5918 23.3783 27.7795
    C 23.1048 27.9673 22.7576 28.0117 22.4457 27.8988
    L 18.5247 26.3449
    C 18.1438 26.1884 17.8928 25.8201 17.8866 25.4083
    V 18.5749
    C 17.8859 18.3199 17.7906 18.0741 17.619 17.8854
    L 14.4493 14.4996
    C 14.1934 14.2014 14.1297 13.7835 14.285 13.4226
    C 14.4403 13.0617 14.7876 12.8207 15.18 12.8015
    H 26.7577
    C 27.157 12.8223 27.5082 13.0725 27.6582 13.4431
    C 27.8082 13.8138 27.73 14.2378 27.4575 14.5305
    H 27.4576
    Z" 
    stroke="#050B13" 
    stroke-linecap="round" 
    stroke-linejoin="round"/>
</svg>