<svg viewBox="0 0 20 22" fill="none" xmlns="http://www.w3.org/2000/svg">
<path d="M11.325 11.3958C12.5782 11.3958 13.6582 9.48923 13.6582 8.22262C13.6582 6.97083 12.6434 5.95605 11.3916 5.95605C10.1398 5.95605 9.12506 6.97083 9.12506 8.22262C9.0584 9.48923 10.0717 11.3958 11.325 11.3958Z" stroke="#7C8592"/>
<path d="M6.79199 15.4892V13.9692C6.8334 13.0739 7.38971 12.2836 8.2186 11.9427L8.81857 11.7293C10.4606 11.2891 12.1897 11.2891 13.8317 11.7293L14.445 11.9427C15.2687 12.2877 15.8192 13.0771 15.8583 13.9692V15.4892L14.3117 15.7425C12.3391 16.0759 10.3245 16.0759 8.35193 15.7425L6.79199 15.4892Z" stroke="#7C8592"/>
<rect x="4.17883" y="0.976074" width="14.5201" height="19.9991" rx="2" stroke="#7C8592"/>
<path d="M4.17859 3.68309V4.85637C4.17859 5.173 3.92191 5.42968 3.60528 5.42968H1.85869C1.23279 5.42968 0.725399 4.92229 0.725399 4.29639V4.24306C0.725399 3.61716 1.23279 3.10977 1.85869 3.10977H3.59195C3.7463 3.10618 3.89557 3.16499 4.00599 3.2729C4.11641 3.38081 4.17864 3.52869 4.17859 3.68308L4.17859 3.68309Z" fill="#7C8592"/>
<path d="M4.16515 7.79478V9.6747C4.16515 9.79988 4.06367 9.90136 3.93849 9.90136H1.84525C1.21935 9.90136 0.711971 9.39397 0.711971 8.76807V8.70141C0.711971 8.07551 1.21936 7.56812 1.84526 7.56812H3.9385C4.06368 7.56812 4.16516 7.6696 4.16516 7.79478H4.16515Z" fill="#7C8592"/>
<path d="M4.12547 16.7351V18.6017C4.12547 18.7269 4.02399 18.8284 3.89881 18.8284H1.83223C1.20633 18.8284 0.69894 18.321 0.69894 17.6951V17.6284C0.69894 17.0025 1.20633 16.4951 1.83223 16.4951H3.93881C4.05341 16.5153 4.13408 16.6191 4.12547 16.7351Z" fill="#7C8592"/>
<path d="M4.17856 12.2898V14.1564C4.17856 14.2816 4.07708 14.383 3.9519 14.383H1.88532C1.25942 14.383 0.752032 13.8756 0.752032 13.2498V13.1831C0.752032 12.5572 1.25942 12.0498 1.88532 12.0498H3.9519C4.0144 12.0497 4.07416 12.0754 4.11708 12.1208C4.15999 12.1663 4.18224 12.2274 4.17856 12.2898V12.2898Z" fill="#7C8592"/>
</svg>
