<svg xmlns="http://www.w3.org/2000/svg" width="16" height="16" viewBox="0 0 16 16" fill="none">
  <circle cx="6.8747" cy="4.3769" r="1.3144" fill="#fff"/>
  <circle cx="5.60785" cy="10.4501" r="1.3144" fill="#fff"/>
  <circle cx="11.5974" cy="9.31342" r="1.3144" fill="#fff"/>
  <circle cx="8.16914" cy="8.03755" r="0.705522" fill="#fff"/>
  <circle cx="3.74873" cy="7.35542" r="0.705522" fill="#fff"/>
  <circle cx="8.87935" cy="12.3833" r="0.705522" fill="#fff"/>
  <path fill-rule="evenodd" clip-rule="evenodd" d="M8.19704 1.43794C8.6795 1.43892 9.16041 1.49236 9.63132 1.5973C9.52598 1.9598 9.47233 2.33535 9.47195 2.71285C9.47661 3.99658 10.0841 5.20354 11.1125 5.97201C12.1408 6.74048 13.4704 6.98118 14.7029 6.62196C15.3106 9.36017 14.1264 12.1841 11.7473 13.6698C9.3682 15.1554 6.311 14.98 4.11739 13.2321C1.92378 11.4842 1.07021 8.54332 1.98711 5.89257C2.90402 3.24182 5.39225 1.45691 8.19704 1.43794ZM8.19704 0.500504C4.91736 0.518884 2.03007 2.66626 1.06887 5.80198C0.10767 8.9377 1.29557 12.3343 4.00156 14.1874C6.70755 16.0406 10.3038 15.9205 12.8801 13.8908C15.4564 11.8611 16.4149 8.39286 15.2466 5.32829C14.7411 5.65494 14.1516 5.82756 13.5498 5.82513C11.8242 5.82513 10.4239 4.42902 10.4188 2.70345C10.4282 2.10087 10.6139 1.51425 10.9531 1.01608C10.0745 0.674204 9.1398 0.499344 8.19703 0.500494L8.19704 0.500504Z" fill="#fff"/>
</svg>