<svg width="15" height="16" viewBox="0 0 15 16" fill="none" xmlns="http://www.w3.org/2000/svg">
<path fill-rule="evenodd" clip-rule="evenodd" d="M11.6501 3.33744C11.4293 1.42489 9.8028 -0.0139718 7.8776 0.00010236C5.95239 0.0141765 4.34713 1.47666 4.15429 3.39223L4.15178 3.41721V3.44231C4.15178 4.43344 4.54518 5.65882 5.16875 6.63744C5.42681 7.04244 5.74323 7.43317 6.11034 7.74952C5.4715 7.82944 4.83659 7.9527 4.20987 8.1193L4.18883 8.12489L4.16835 8.1323L3.30062 8.44597L3.28797 8.45054L3.27558 8.45579C1.91252 9.03314 1.01023 10.3623 0.955536 11.854L0.9552 11.8632V11.8723V14.0586V14.4814L1.37219 14.5516L3.57349 14.9222L3.57404 14.9223C6.42762 15.4068 9.3403 15.4068 12.1939 14.9223L12.1944 14.9222L14.3957 14.5516L14.8127 14.4814V14.0586V11.8438V11.8321L14.8121 11.8203C14.7426 10.342 13.8435 9.03039 12.4929 8.45607L12.4802 8.45066L12.4672 8.44597L11.5995 8.1323L11.579 8.12489L11.558 8.1193C10.9329 7.95313 10.2996 7.83008 9.66246 7.75014C10.0331 7.43323 10.3539 7.04113 10.6162 6.63336C11.2499 5.64855 11.6534 4.41065 11.6534 3.39478V3.36601L11.6501 3.33744ZM7.88491 1.00008C9.28983 0.989805 10.4782 2.03262 10.6533 3.42359C10.6454 4.21038 10.3184 5.24814 9.77525 6.09227C9.21301 6.96612 8.52652 7.47634 7.88358 7.47634C7.24212 7.47634 6.56513 6.96799 6.0121 6.10007C5.47715 5.26052 5.15875 4.23227 5.15189 3.46741C5.30493 2.07226 6.47877 1.01036 7.88491 1.00008ZM3.65375 9.38165L4.48764 9.08021C6.71506 8.49194 9.0528 8.49194 11.2802 9.08021L12.1138 9.38152C13.0937 9.80381 13.7571 10.7627 13.8127 11.856V13.6357L12.0276 13.9362L12.0269 13.9363C9.28385 14.4022 6.48401 14.4022 3.74091 13.9363L3.74021 13.9362L1.9552 13.6357V11.8819C1.999 10.7782 2.66465 9.80607 3.65375 9.38165Z" fill="#7C8592"/>
</svg>
