<svg width="22" height="22" viewBox="0 0 22 22" fill="none" xmlns="http://www.w3.org/2000/svg">
<path d="M12.5274 1.00074C12.6759 1.0584 12.8211 1.12411 12.9624 1.19759C13.3339 1.41734 13.5599 1.81728 13.5556 2.24746C13.5556 2.70678 13.5556 3.17922 13.5556 3.65166C13.5633 3.72492 13.6015 3.79159 13.661 3.83539L15.1242 4.39969L16.1261 3.40231C16.3746 3.14568 16.7172 3.0007 17.0752 3.0007C17.4332 3.0007 17.7758 3.14568 18.0243 3.40231L19.1052 4.47843C19.3675 4.71243 19.5173 5.04647 19.5173 5.39707C19.5173 5.74767 19.3675 6.08171 19.1052 6.31571L18.0639 7.35246L18.657 8.82228C18.657 8.82228 18.7757 8.91414 18.8284 8.91414H20.1466C20.5029 8.89067 20.8521 9.02138 21.1046 9.27276C21.3571 9.52414 21.4884 9.87175 21.4648 10.2265V11.7882C21.4884 12.1429 21.3571 12.4905 21.1046 12.7419C20.8521 12.9932 20.5029 13.124 20.1466 13.1005H18.8284C18.7537 13.1046 18.6853 13.1435 18.6439 13.2055C18.4461 13.6779 18.2616 14.1635 18.0639 14.6622L19.0525 15.6464C19.3187 15.8945 19.4698 16.2414 19.4698 16.6044C19.4698 16.9675 19.3187 17.3143 19.0525 17.5624L17.9848 18.6254C17.7372 18.8739 17.4003 19.0136 17.0488 19.0136C16.6973 19.0136 16.3604 18.8739 16.1129 18.6254L15.0979 17.6018L13.6215 18.1923C13.6215 18.1923 13.5292 18.3105 13.5292 18.3761C13.5292 18.8091 13.5292 19.2553 13.5292 19.6884C13.5292 20.4132 12.939 21.0008 12.211 21.0008H10.6687C9.94066 21.0008 9.35048 20.4132 9.35048 19.6884V18.3761C9.35048 18.2842 9.35048 18.2186 9.23184 18.1792C8.7441 18.0086 8.28273 17.8118 7.78181 17.6149L6.79315 18.5992C6.54332 18.8728 6.18911 19.0288 5.81767 19.0288C5.44623 19.0288 5.09203 18.8728 4.84219 18.5992C4.49945 18.2448 4.14354 17.9036 3.78762 17.5493C3.27652 17.0374 3.27652 16.2108 3.78762 15.6989L4.80264 14.6753L4.27535 13.1792C4.23136 13.12 4.16439 13.0819 4.0908 13.0742H2.77259C2.17083 13.1256 1.61956 12.7375 1.46756 12.1556V12.1556V9.9115C1.61627 9.31152 2.16529 8.89613 2.78577 8.91412H4.10398C4.18607 8.92425 4.26371 8.87456 4.28853 8.79601C4.4599 8.32357 4.65763 7.85113 4.85536 7.35244C4.53899 7.0506 4.20944 6.70939 3.8667 6.36819C3.59183 6.11947 3.43513 5.76685 3.43513 5.39706C3.43513 5.02727 3.59184 4.67465 3.8667 4.42593L4.85536 3.42855C5.10519 3.15491 5.4594 2.9989 5.83084 2.9989C6.20228 2.9989 6.55648 3.15491 6.80632 3.42855L7.79498 4.39968L9.2582 3.83538C9.32101 3.78864 9.35966 3.71649 9.36366 3.63853V2.19496C9.37589 1.76549 9.62398 1.37738 10.0096 1.18446C10.1282 1.10572 10.2732 1.06635 10.405 1.00073L12.5274 1.00074Z" stroke="#5E5E5E"/>
<circle cx="11.4584" cy="10.9857" r="2.9" stroke="#5E5E5E"/>
<circle cx="11.4887" cy="10.9836" r="2.87421" stroke="#5E5E5E"/>
</svg>
